<svg width="99" height="36" viewBox="0 0 99 36" fill="none" xmlns="http://www.w3.org/2000/svg">
<path d="M50.728 30.576C48.472 30.576 46.48 29.94 44.752 28.668C43.024 27.396 41.812 25.596 41.116 23.268L45.688 21.468C46.048 22.836 46.66 23.928 47.524 24.744C48.388 25.56 49.468 25.968 50.764 25.968C51.844 25.968 52.768 25.704 53.536 25.176C54.304 24.624 54.688 23.868 54.688 22.908C54.688 21.948 54.316 21.168 53.572 20.568C52.852 19.944 51.556 19.284 49.684 18.588L48.1 18.012C46.444 17.436 45.028 16.56 43.852 15.384C42.676 14.184 42.088 12.684 42.088 10.884C42.088 9.54 42.436 8.316 43.132 7.212C43.828 6.108 44.812 5.244 46.084 4.62C47.356 3.972 48.796 3.648 50.404 3.648C52.732 3.648 54.568 4.2 55.912 5.304C57.256 6.384 58.18 7.656 58.684 9.12L54.4 10.92C54.136 10.128 53.668 9.468 52.996 8.94C52.348 8.388 51.508 8.112 50.476 8.112C49.42 8.112 48.544 8.364 47.848 8.868C47.176 9.348 46.84 9.984 46.84 10.776C46.84 11.544 47.164 12.204 47.812 12.756C48.46 13.284 49.528 13.8 51.016 14.304L52.636 14.844C54.868 15.612 56.572 16.632 57.748 17.904C58.948 19.152 59.548 20.796 59.548 22.836C59.548 24.516 59.116 25.944 58.252 27.12C57.388 28.272 56.272 29.136 54.904 29.712C53.56 30.288 52.168 30.576 50.728 30.576ZM76.3552 30.576C73.8592 30.576 71.5792 29.988 69.5152 28.812C67.4512 27.612 65.8192 25.992 64.6192 23.952C63.4432 21.888 62.8552 19.608 62.8552 17.112C62.8552 14.616 63.4432 12.348 64.6192 10.308C65.8192 8.244 67.4512 6.624 69.5152 5.448C71.5792 4.248 73.8592 3.648 76.3552 3.648C80.2432 3.648 83.4592 5.052 86.0032 7.86L82.5832 11.172C80.9272 9.228 78.8632 8.256 76.3912 8.256C74.7832 8.256 73.3192 8.628 71.9992 9.372C70.6792 10.092 69.6352 11.124 68.8672 12.468C68.1232 13.812 67.7512 15.36 67.7512 17.112C67.7512 18.864 68.1232 20.412 68.8672 21.756C69.6352 23.1 70.6792 24.144 71.9992 24.888C73.3192 25.608 74.7832 25.968 76.3912 25.968C79.1032 25.968 81.3712 24.84 83.1952 22.584L86.6512 25.86C85.3792 27.396 83.8672 28.572 82.1152 29.388C80.3872 30.18 78.4672 30.576 76.3552 30.576ZM93.3472 30.216C92.4832 30.216 91.7392 29.916 91.1152 29.316C90.5152 28.692 90.2152 27.948 90.2152 27.084C90.2152 26.22 90.5152 25.488 91.1152 24.888C91.7392 24.288 92.4832 23.988 93.3472 23.988C94.2112 23.988 94.9432 24.288 95.5432 24.888C96.1672 25.488 96.4792 26.22 96.4792 27.084C96.4792 27.948 96.1672 28.692 95.5432 29.316C94.9432 29.916 94.2112 30.216 93.3472 30.216Z" fill="black"/>
<path fill-rule="evenodd" clip-rule="evenodd" d="M24 9.84771C24 14.5421 20.1944 18.3477 15.5 18.3477C10.8056 18.3477 7 14.5421 7 9.84771C7 7.39701 8.03714 5.18854 9.69645 3.63729C3.99409 6.08401 0 11.7494 0 18.3477C0 24.946 3.9941 30.6114 9.69646 33.0581C8.03715 31.5069 7 29.2984 7 26.8477C7 22.1533 10.8056 18.3477 15.5 18.3477C20.1944 18.3477 24 22.1533 24 26.8477C24 29.6569 22.6372 32.1478 20.5367 33.6954C27.1637 31.7396 32 25.6084 32 18.3477C32 11.087 27.1637 4.95583 20.5367 3C22.6372 4.54759 24 7.0385 24 9.84771Z" fill="#D90429"/>
</svg>
